{"title":"Star Wars Rebels S02E12 Legends of the Lasat 1080P WEB-DL DD5 1","uid":13424801,"size":967789561,"categoryP":"video","categoryS":"hd___tv_shows","magnet":"?xt=urn:btih:a9fd4aa01d9f3e079dd6fee920e8d57347393b83&amp;dn=Star+Wars+Rebels+S02E12+Legends+of+the+Lasat+1080P+WEB-DL+DD5+1+&amp;tr=udp%3A%2F%2Ftracker.leechers-paradise.org%3A6969&amp;tr=udp%3A%2F%2Fzer0day.ch%3A1337&amp;tr=udp%3A%2F%2Fopen.demonii.com%3A1337&amp;tr=udp%3A%2F%2Ftracker.coppersurfer.tk%3A6969&amp;tr=udp%3A%2F%2Fexodus.desync.com%3A6969","seeders":7,"leechers":0,"uploader":"jmanwf","files":2,"time":1454581503,"description":"The rebels are stunned to discover two Lasat refugees, and together they must evade the Empire to get the Lasat to their prophesized new home planet.\r\n\r\n\r\nVideo\r\nID : 2\r\nFormat : AVC\r\nFormat/Info : Advanced Video Codec\r\nFormat profile :   \r\nFormat settings, CABAC : Yes\r\nFormat settings, ReFrames : 4 frames\r\nCodec ID : avc1\r\nCodec ID/Info : Advanced Video Coding\r\nDuration : 22mn 7s\r\nBit rate : 5 319 Kbps\r\nWidth : 1 920 pixels\r\nHeight : 1 080 pixels\r\nDisplay aspect ratio : 16:9\r\nFrame rate mode : Constant\r\nFrame rate : 23.976 fps\r\nColor space : YUV\r\nChroma subsampling : 4:2:0\r\nBit depth : 8 bits\r\nScan type : Progressive\r\nBits/(Pixel*Frame) : 0.107\r\nStream size : 841 MiB (91%)\r\nLanguage : English\r\nEncoded date : UTC 2016-02-04 08:45:18\r\nTagged date : UTC 2016-02-04 08:47:35\r\nColor range : Limited\r\nColor primaries : BT.709\r\nTransfer characteristics : BT.709\r\nMatrix coefficients : BT.709\r\n\r\nAudio #1\r\nID : 1\r\nFormat : AAC\r\nFormat/Info : Advanced Audio Codec\r\nFormat profile : LC\r\nCodec ID : 40\r\nDuration : 22mn 7s\r\nBit rate mode : Variable\r\nBit rate : 126 Kbps\r\nMaximum bit rate : 187 Kbps\r\nChannel(s) : 2 channels\r\nChannel positions : Front: L R\r\nSampling rate : 48.0 KHz\r\nCompression mode : Lossy\r\nStream size : 20.0 MiB (2%)\r\nLanguage : English\r\nEncoded date : UTC 2016-02-04 08:45:18\r\nTagged date : UTC 2016-02-04 08:47:35\r\n\r\nAudio #2\r\nID : 3\r\nFormat : AC-3\r\nFormat/Info : Audio Coding 3\r\nMode extension : CM (complete main)\r\nFormat settings, Endianness : Big\r\nCodec ID : ac-3\r\nDuration : 22mn 7s\r\nBit rate mode : Constant\r\nBit rate : 384 Kbps\r\nChannel(s) : 6 channels\r\nChannel positions : Front: L C R, Side: L R, LFE\r\nSampling rate : 48.0 KHz\r\nBit depth : 16 bits\r\nCompression mode : Lossy\r\nStream size : 60.8 MiB (7%)\r\nLanguage : English\r\nEncoded date : UTC 2016-02-04 08:45:18\r\nTagged date : UTC 2016-02-04 08:47:35\r\n\r\nText\r\nID : 4-CC1\r\nFormat : EIA-608\r\nMuxing mode : Final Cut\r\nCodec ID : c608\r\nDuration : 21mn 27s\r\nBit rate mode : Constant\r\nStream size : 0.00 Byte (0%)\r\nLanguage : English\r\nEncoded date : UTC 2016-02-04 08:45:18\r\nTagged date : UTC 2016-02-04 08:45:23","torrent":{"xt":"urn:btih:a9fd4aa01d9f3e079dd6fee920e8d57347393b83","amp;dn":"Star+Wars+Rebels+S02E12+Legends+of+the+Lasat+1080P+WEB-DL+DD5+1+","amp;tr":["udp%3A%2F%2Ftracker.leechers-paradise.org%3A6969","udp%3A%2F%2Fzer0day.ch%3A1337","udp%3A%2F%2Fopen.demonii.com%3A1337","udp%3A%2F%2Ftracker.coppersurfer.tk%3A6969","udp%3A%2F%2Fexodus.desync.com%3A6969"],"infoHash":"a9fd4aa01d9f3e079dd6fee920e8d57347393b83","infoHashBuffer":{"type":"Buffer","data":[169,253,74,160,29,159,62,7,157,214,254,233,32,232,213,115,71,57,59,131]},"announce":[],"urlList":[]}}